<svg xmlns="http://www.w3.org/2000/svg" width="500" height="386" viewBox="0 0 500 386" version="1.1"><path d="M 244.750 10.737 C 247.637 10.939, 252.363 10.939, 255.250 10.737 C 258.137 10.535, 255.775 10.370, 250 10.370 C 244.225 10.370, 241.863 10.535, 244.750 10.737 M 234.250 11.689 C 235.213 11.941, 236.787 11.941, 237.750 11.689 C 238.713 11.438, 237.925 11.232, 236 11.232 C 234.075 11.232, 233.287 11.438, 234.250 11.689 M 262.250 11.689 C 263.212 11.941, 264.788 11.941, 265.750 11.689 C 266.712 11.438, 265.925 11.232, 264 11.232 C 262.075 11.232, 261.288 11.438, 262.250 11.689 M 220.500 14.464 C 216.556 16.270, 217.448 16.301, 223 14.552 C 225.475 13.772, 226.600 13.124, 225.500 13.112 C 224.400 13.100, 222.150 13.708, 220.500 14.464 M 276 14.500 C 277.925 15.241, 280.175 15.848, 281 15.848 C 281.825 15.848, 280.925 15.241, 279 14.500 C 277.075 13.759, 274.825 13.152, 274 13.152 C 273.175 13.152, 274.075 13.759, 276 14.500 M 208.231 19.457 C 188.904 28.719, 172.059 45.260, 162.146 64.710 C 158.770 71.333, 159.686 71.165, 163.291 64.500 C 174.721 43.372, 188.968 29.584, 209.364 19.913 C 213.839 17.791, 217.037 16.043, 216.472 16.028 C 215.906 16.012, 212.198 17.555, 208.231 19.457 M 288.761 19.033 C 308.793 28.262, 325.462 44.219, 336.204 64.449 C 340.454 72.455, 341.384 72.670, 337.362 64.717 C 330.996 52.131, 319.526 38.429, 307.715 29.301 C 302.022 24.900, 285.640 15.929, 283.563 16.074 C 282.978 16.115, 285.318 17.446, 288.761 19.033 M 242.116 42.044 C 221.357 47.481, 206.306 63.382, 201.543 84.909 C 200.150 91.205, 200.075 93.749, 201.041 101.842 C 202.929 117.654, 206.007 125.929, 215.418 140.500 C 223.454 152.941, 224.566 157.149, 223.026 169.295 C 222.424 174.040, 220.975 179.219, 219.280 182.681 C 216.350 188.664, 209.348 196.437, 205.902 197.531 C 201.383 198.965, 180.953 182.398, 172.318 170.297 C 169.847 166.834, 167.610 164, 167.348 164 C 165.936 164, 176.159 176.780, 182.332 182.733 C 198.370 198.197, 215.675 206.541, 238.016 209.583 C 248.536 211.016, 250.663 211.015, 261.704 209.579 C 277.841 207.480, 277.371 207.715, 276.593 202.099 C 273.965 183.131, 275.122 173.632, 280.184 172.598 C 281.458 172.338, 287.900 171.892, 294.500 171.607 C 308.076 171.020, 314.953 169.146, 318.069 165.185 C 320.001 162.729, 320.114 161.483, 319.818 146.029 L 319.500 129.500 324.991 129 C 328.908 128.643, 330.568 128.051, 330.779 126.936 C 330.942 126.076, 328.091 120.799, 324.443 115.211 L 317.811 105.049 319.033 97.802 C 319.722 93.720, 319.996 87.486, 319.661 83.527 C 317.721 60.612, 304.322 46.865, 278.785 41.591 C 268.097 39.383, 251.493 39.588, 242.116 42.044 M 251 47.111 C 251 47.840, 249.794 47.996, 247.500 47.566 C 244.386 46.982, 244 47.145, 244 49.048 C 244 50.332, 243.216 51.392, 242.039 51.700 C 240.365 52.138, 240.139 52.892, 240.492 56.856 C 240.719 59.410, 240.927 61.806, 240.953 62.180 C 240.979 62.555, 242.012 63.015, 243.250 63.204 C 244.488 63.393, 245.383 64.112, 245.241 64.802 C 244.864 66.623, 247.774 67.433, 249.513 65.989 C 250.677 65.023, 251.316 65.018, 252.456 65.964 C 254.303 67.497, 256 66.483, 256 63.847 C 256 62.701, 256.816 61.599, 257.869 61.324 C 260.479 60.641, 260.256 51.676, 257.616 51.166 C 256.665 50.982, 255.473 49.744, 254.968 48.416 C 254.052 46.006, 251 45.003, 251 47.111 M 246.655 52.829 C 244.719 54.968, 244.484 59.084, 246.200 60.800 C 246.860 61.460, 248.570 62, 250 62 C 253.341 62, 255 60.299, 255 56.871 C 255 51.679, 249.922 49.219, 246.655 52.829 M 294.951 57.559 C 293.504 59.302, 291.313 59.439, 290.773 57.820 C 290.141 55.924, 287 57.733, 287 59.993 C 287 61.266, 286.048 62.411, 284.500 63 C 282.066 63.925, 280.844 68, 283 68 C 284.276 68, 284.312 71.689, 283.044 72.473 C 281.337 73.528, 283.099 75.875, 285.835 76.192 C 287.731 76.411, 288.500 77.077, 288.500 78.500 C 288.500 79.813, 289.273 80.610, 290.750 80.820 C 291.988 80.995, 293 80.658, 293 80.070 C 293 78.742, 296.665 78.649, 297.473 79.956 C 298.528 81.663, 300.875 79.901, 301.192 77.165 C 301.410 75.281, 302.160 74.406, 303.750 74.180 C 305.991 73.862, 307.129 70, 304.982 70 C 304.409 70, 304.081 68.151, 304.232 65.774 C 304.463 62.133, 304.224 61.545, 302.500 61.524 C 301.400 61.511, 300.060 60.496, 299.521 59.269 C 298.265 56.406, 296.466 55.733, 294.951 57.559 M 290.223 63.557 C 287.421 65.519, 287.201 70.967, 289.829 73.345 C 294.029 77.146, 300 74.124, 300 68.197 C 300 65.725, 299.368 64.725, 297.050 63.526 C 293.385 61.631, 292.970 61.633, 290.223 63.557 M 261.250 63.662 C 260.563 63.940, 260 64.977, 260 65.968 C 260 66.959, 258.880 68.504, 257.511 69.401 C 255.494 70.722, 254.655 70.802, 253.081 69.819 C 251.426 68.785, 250.846 68.967, 249.150 71.053 C 247.389 73.219, 247.329 73.688, 248.629 75.132 C 250.703 77.438, 249.379 81.906, 246.272 83.087 C 244.598 83.723, 243.991 84.535, 244.398 85.596 C 244.729 86.458, 245 87.802, 245 88.582 C 245 89.402, 245.987 90, 247.339 90 C 250.435 90, 252.519 94.197, 250.794 96.958 C 249.791 98.564, 249.988 99.171, 252.053 100.850 C 254.219 102.611, 254.688 102.671, 256.132 101.371 C 258.464 99.274, 262.859 100.588, 263.617 103.611 C 264.243 106.106, 265.016 106.370, 268.750 105.370 C 270.228 104.974, 271 104.004, 271 102.544 C 271 99.935, 274.921 97.704, 277.092 99.078 C 279.228 100.430, 279.810 100.220, 281.631 97.440 C 283.151 95.120, 283.162 94.733, 281.748 93.320 C 279.653 91.224, 281.330 86, 284.098 86 C 285.605 86, 286 85.273, 286 82.500 C 286 79.425, 285.694 79, 283.479 79 C 280.259 79, 278.011 74.813, 279.742 72.041 C 280.668 70.559, 280.433 69.816, 278.447 67.950 C 276.156 65.798, 275.917 65.765, 274.150 67.364 C 271.805 69.487, 267.540 68.172, 266.730 65.077 C 266.210 63.089, 264.052 62.532, 261.250 63.662 M 156.631 78.687 C 155.214 82.984, 153.825 88.525, 153.545 91 C 153.109 94.839, 153.244 94.619, 154.460 89.500 C 155.244 86.200, 156.812 80.839, 157.945 77.586 C 159.078 74.333, 159.825 71.492, 159.606 71.273 C 159.386 71.053, 158.047 74.389, 156.631 78.687 M 340.653 74 C 341.001 75.375, 341.903 78.075, 342.658 80 C 343.832 82.995, 343.948 83.083, 343.461 80.610 C 343.148 79.021, 342.246 76.321, 341.456 74.610 C 340.376 72.271, 340.177 72.120, 340.653 74 M 169.359 75.469 C 167.175 76.403, 165.857 77.903, 165.036 80.390 C 163.628 84.656, 164.352 87.567, 167.714 91.161 C 170.136 93.750, 170.150 93.849, 168.239 94.872 C 163.560 97.376, 163.037 105.238, 167.248 109.750 C 171.743 114.566, 178.991 112.095, 189.414 102.193 C 194.193 97.653, 195 96.363, 195 93.260 C 195 90.222, 194.197 88.858, 190.058 84.868 C 180.697 75.846, 174.772 73.156, 169.359 75.469 M 257.923 76.923 C 255.530 79.316, 255 80.690, 255 84.500 C 255 88.310, 255.530 89.684, 257.923 92.077 C 260.283 94.436, 261.709 95, 265.319 95 C 269.188 95, 270.212 94.522, 272.896 91.465 C 275.078 88.981, 276 86.911, 276 84.500 C 276 82.089, 275.078 80.019, 272.896 77.535 C 270.212 74.478, 269.188 74, 265.319 74 C 261.709 74, 260.283 74.564, 257.923 76.923 M 344.142 84.500 C 344.151 85.050, 344.792 88.650, 345.567 92.500 L 346.975 99.500 346.490 93.843 C 346.088 89.160, 344.091 81.212, 344.142 84.500 M 213.730 92.923 C 213.413 94.138, 212.175 94.966, 210.364 95.173 C 207.816 95.464, 207.533 95.844, 207.797 98.625 C 207.997 100.726, 207.587 101.944, 206.547 102.344 C 204.355 103.185, 204.630 105.731, 207.052 107.028 C 208.359 107.727, 208.995 108.920, 208.802 110.313 C 208.543 112.191, 208.985 112.505, 211.927 112.532 C 213.812 112.550, 215.537 113.112, 215.761 113.782 C 216.344 115.531, 220 115.288, 220 113.500 C 220 111.991, 221.019 111.619, 224.250 111.948 C 226.032 112.129, 226.364 111.256, 226.039 107.246 C 225.937 105.988, 226.550 104.726, 227.428 104.389 C 229.503 103.593, 229.412 102.464, 227.095 100.289 C 226.047 99.305, 225.035 97.375, 224.845 96 C 224.550 93.861, 224.048 93.543, 221.375 93.797 C 219.274 93.997, 218.056 93.587, 217.656 92.547 C 216.824 90.379, 214.333 90.617, 213.730 92.923 M 152.286 100.500 C 152.294 103.250, 152.488 104.256, 152.718 102.736 C 152.947 101.216, 152.941 98.966, 152.704 97.736 C 152.467 96.506, 152.279 97.750, 152.286 100.500 M 213.223 98.557 C 210.583 100.405, 210.239 105.096, 212.571 107.429 C 214.904 109.761, 219.595 109.417, 221.443 106.777 C 223.538 103.786, 223.403 101.403, 221 99 C 218.597 96.597, 216.214 96.462, 213.223 98.557 M 236.487 102.250 C 235.815 103.782, 234.641 104.500, 232.806 104.500 C 229.302 104.500, 227.266 106.411, 228.801 108.260 C 230.214 109.962, 229.217 114, 227.383 114 C 226.574 114, 226 115.038, 226 116.500 C 226 118.029, 226.569 119, 227.465 119 C 229.428 119, 231.027 122.183, 230.354 124.753 C 229.751 127.058, 233.342 129.874, 234.498 128.003 C 235.600 126.220, 239.162 126.902, 239.710 129 C 240.470 131.906, 244.760 131.710, 245.180 128.750 C 245.436 126.953, 246.143 126.500, 248.696 126.500 C 252.609 126.500, 254.554 124.797, 253.475 122.317 C 252.426 119.905, 252.869 117.683, 254.595 116.700 C 256.811 115.439, 256.290 111.602, 253.750 110.480 C 252.117 109.758, 251.573 108.771, 251.767 106.879 C 252.106 103.555, 249.627 101.235, 247.564 102.947 C 246.003 104.242, 242 102.816, 242 100.965 C 242 98.965, 237.464 100.023, 236.487 102.250 M 347.374 110.500 C 347.376 116.550, 347.541 118.896, 347.740 115.713 C 347.939 112.531, 347.937 107.581, 347.736 104.713 C 347.535 101.846, 347.372 104.450, 347.374 110.500 M 235.923 109.923 C 234.179 111.668, 233 113.903, 233 115.469 C 233 119.283, 237.137 123, 241.382 123 C 249.413 123, 251.706 111.465, 244.343 108.110 C 240.622 106.415, 239.104 106.742, 235.923 109.923 M 152.272 120 C 152.272 122.475, 152.467 123.487, 152.706 122.250 C 152.944 121.013, 152.944 118.987, 152.706 117.750 C 152.467 116.513, 152.272 117.525, 152.272 120 M 346.232 125 C 346.232 126.925, 346.438 127.713, 346.689 126.750 C 346.941 125.787, 346.941 124.213, 346.689 123.250 C 346.438 122.287, 346.232 123.075, 346.232 125 M 339.981 147.679 C 337.733 153.518, 337.738 153.824, 340.018 149.680 C 341.174 147.579, 341.970 145.409, 341.786 144.859 C 341.603 144.309, 340.791 145.578, 339.981 147.679 M 159.071 148.500 C 159.071 149.050, 159.714 150.625, 160.500 152 C 161.286 153.375, 161.929 154.050, 161.929 153.500 C 161.929 152.950, 161.286 151.375, 160.500 150 C 159.714 148.625, 159.071 147.950, 159.071 148.500 M 164 159 C 165.122 161.200, 166.266 163, 166.541 163 C 166.816 163, 166.122 161.200, 165 159 C 163.878 156.800, 162.734 155, 162.459 155 C 162.184 155, 162.878 156.800, 164 159 M 334.055 159.893 C 328.342 171.090, 315.425 185.075, 303.387 193.094 C 300.575 194.967, 297.425 197.069, 296.387 197.764 C 295.349 198.460, 296.075 198.282, 298 197.370 C 303.649 194.692, 315.588 185.279, 321.090 179.164 C 328.180 171.284, 338.379 156, 336.546 156 C 336.268 156, 335.147 157.752, 334.055 159.893 M 40.461 179.250 C 40.199 179.938, 40.101 225.500, 40.242 280.500 L 40.500 380.500 41 279.250 C 41.275 223.562, 41.373 178, 41.219 178 C 41.064 178, 40.723 178.563, 40.461 179.250 M 431.229 201.250 L 431 223 444.543 223 L 458.085 223 457.793 241.501 C 457.632 251.677, 457.847 260.002, 458.272 260.001 C 458.697 260.001, 458.922 251.563, 458.772 241.250 L 458.500 222.500 445.270 222.221 L 432.040 221.942 431.749 200.721 L 431.458 179.500 431.229 201.250 M 159.750 221.732 C 162.088 221.943, 165.912 221.943, 168.250 221.732 C 170.588 221.522, 168.675 221.349, 164 221.349 C 159.325 221.349, 157.412 221.522, 159.750 221.732 M 281.206 221.741 C 284.895 221.932, 291.195 221.934, 295.206 221.743 C 299.218 221.553, 296.200 221.396, 288.500 221.395 C 280.800 221.393, 277.518 221.549, 281.206 221.741 M 147.762 222.707 C 149.006 222.946, 150.806 222.937, 151.762 222.687 C 152.718 222.437, 151.700 222.241, 149.500 222.252 C 147.300 222.263, 146.518 222.468, 147.762 222.707 M 177.750 222.723 C 179.537 222.945, 182.463 222.945, 184.250 222.723 C 186.037 222.502, 184.575 222.320, 181 222.320 C 177.425 222.320, 175.963 222.502, 177.750 222.723 M 268.762 222.707 C 270.006 222.946, 271.806 222.937, 272.762 222.687 C 273.718 222.437, 272.700 222.241, 270.500 222.252 C 268.300 222.263, 267.518 222.468, 268.762 222.707 M 304.250 222.689 C 305.212 222.941, 306.788 222.941, 307.750 222.689 C 308.712 222.438, 307.925 222.232, 306 222.232 C 304.075 222.232, 303.288 222.438, 304.250 222.689 M 190.250 223.689 C 191.213 223.941, 192.787 223.941, 193.750 223.689 C 194.713 223.438, 193.925 223.232, 192 223.232 C 190.075 223.232, 189.287 223.438, 190.250 223.689 M 199.500 225 C 201.150 225.420, 203.850 225.765, 205.500 225.767 C 208.022 225.769, 207.863 225.638, 204.500 224.943 C 199.434 223.895, 195.341 223.942, 199.500 225 M 324.965 227.504 C 328.520 228.824, 331.589 229.744, 331.784 229.550 C 332.254 229.079, 321.266 224.985, 319.712 225.052 C 319.046 225.081, 321.409 226.184, 324.965 227.504 M 126.750 228.566 C 124.138 229.926, 122 231.262, 122 231.536 C 122 231.982, 131.900 227.306, 132.917 226.380 C 134.155 225.251, 130.901 226.405, 126.750 228.566 M 210.794 226.662 L 213.088 227.151 212.794 244.528 C 212.632 254.085, 212.849 261.555, 213.275 261.128 C 213.701 260.700, 213.926 252.734, 213.775 243.425 L 213.500 226.500 211 226.336 C 208.712 226.186, 208.695 226.214, 210.794 226.662 M 248.667 226.667 C 247.665 227.669, 247.864 261, 248.872 261 C 249.351 261, 252.164 259.868, 255.122 258.484 C 258.080 257.101, 259.375 256.258, 258 256.611 C 256.625 256.964, 254.285 257.871, 252.800 258.627 C 251.314 259.382, 249.852 260, 249.550 260 C 249.247 260, 249 252.608, 249 243.573 C 249 228.770, 249.173 227.101, 250.750 226.689 C 252.152 226.323, 252.185 226.209, 250.917 226.116 C 250.046 226.052, 249.033 226.300, 248.667 226.667 M 335 231.341 C 335 231.599, 336.982 232.971, 339.404 234.391 C 345.707 238.084, 354.284 246.208, 358.008 252.012 C 361.602 257.614, 363.072 258.725, 360.307 253.750 C 357.714 249.085, 344.210 235.910, 339.231 233.186 C 336.904 231.913, 335 231.083, 335 231.341 M 116.018 235.716 C 111.875 239.263, 104 250.160, 104 252.346 C 104 252.916, 105.578 250.709, 107.506 247.441 C 109.434 244.174, 113.344 239.363, 116.196 236.750 C 122.342 231.120, 122.219 230.408, 116.018 235.716 M 280.264 251.718 C 281.784 251.947, 284.034 251.941, 285.264 251.704 C 286.494 251.467, 285.250 251.279, 282.500 251.286 C 279.750 251.294, 278.744 251.488, 280.264 251.718 M 294.762 251.707 C 296.006 251.946, 297.806 251.937, 298.762 251.687 C 299.718 251.437, 298.700 251.241, 296.500 251.252 C 294.300 251.263, 293.518 251.468, 294.762 251.707 M 102.500 257 C 102.120 258.729, 102.018 260.351, 102.273 260.606 C 102.528 260.861, 103.024 259.632, 103.375 257.875 C 104.209 253.707, 103.401 252.899, 102.500 257 M 168.776 255.733 C 171.128 255.945, 174.728 255.942, 176.776 255.727 C 178.824 255.512, 176.900 255.339, 172.500 255.343 C 168.100 255.346, 166.424 255.522, 168.776 255.733 M 185.250 256.689 C 186.213 256.941, 187.787 256.941, 188.750 256.689 C 189.713 256.438, 188.925 256.232, 187 256.232 C 185.075 256.232, 184.287 256.438, 185.250 256.689 M 315.750 260.285 C 318.087 262.854, 320 265.490, 320 266.144 C 320 266.798, 320.290 267.043, 320.644 266.689 C 321.537 265.796, 317.348 259.910, 314.145 257.558 C 312.483 256.337, 313.080 257.351, 315.750 260.285 M 206 260 C 209.419 261.095, 212.048 261.095, 209.500 260 C 208.400 259.527, 206.600 259.154, 205.500 259.170 C 203.892 259.194, 203.990 259.356, 206 260 M 431.450 260.271 C 431.181 260.970, 431.092 272.107, 431.250 285.021 L 431.539 308.500 431.769 284.281 L 432 260.062 444.250 259.747 L 456.500 259.432 444.219 259.216 C 435.047 259.055, 431.814 259.322, 431.450 260.271 M 101.349 270 C 101.349 274.675, 101.522 276.587, 101.732 274.250 C 101.943 271.913, 101.943 268.087, 101.732 265.750 C 101.522 263.413, 101.349 265.325, 101.349 270 M 151 271.881 C 151 273.416, 157.795 278.862, 163.004 281.502 C 170.440 285.270, 170.437 284.455, 163 280.484 C 159.425 278.575, 155.262 275.653, 153.750 273.991 C 152.238 272.329, 151 271.379, 151 271.881 M 322.320 277 C 322.320 280.575, 322.502 282.038, 322.723 280.250 C 322.945 278.462, 322.945 275.538, 322.723 273.750 C 322.502 271.962, 322.320 273.425, 322.320 277 M 102.015 280.583 C 102.024 281.637, 102.487 283.175, 103.046 284 C 103.787 285.095, 103.880 284.691, 103.390 282.500 C 102.567 278.823, 101.995 278.025, 102.015 280.583 M 370.232 285 C 370.232 286.925, 370.438 287.712, 370.689 286.750 C 370.941 285.788, 370.941 284.212, 370.689 283.250 C 370.438 282.288, 370.232 283.075, 370.232 285 M 309.750 283.706 C 310.988 283.944, 313.012 283.944, 314.250 283.706 C 315.488 283.467, 314.475 283.272, 312 283.272 C 309.525 283.272, 308.512 283.467, 309.750 283.706 M 173 286 C 174.925 287.054, 176.950 287.916, 177.500 287.916 C 178.050 287.916, 176.925 287.054, 175 286 C 173.075 284.946, 171.050 284.084, 170.500 284.084 C 169.950 284.084, 171.075 284.946, 173 286 M 300.250 284.689 C 301.212 284.941, 302.788 284.941, 303.750 284.689 C 304.712 284.438, 303.925 284.232, 302 284.232 C 300.075 284.232, 299.288 284.438, 300.250 284.689 M 183 290.500 C 184.375 291.286, 185.950 291.929, 186.500 291.929 C 187.050 291.929, 186.375 291.286, 185 290.500 C 183.625 289.714, 182.050 289.071, 181.500 289.071 C 180.950 289.071, 181.625 289.714, 183 290.500 M 272.188 290.683 C 269.816 291.522, 268.052 292.385, 268.268 292.601 C 268.484 292.817, 271.099 292.128, 274.080 291.070 C 277.061 290.012, 278.825 289.149, 278 289.152 C 277.175 289.155, 274.559 289.844, 272.188 290.683 M 371.252 293.500 C 371.263 295.700, 371.468 296.482, 371.707 295.238 C 371.946 293.994, 371.937 292.194, 371.687 291.238 C 371.437 290.282, 371.241 291.300, 371.252 293.500 M 188 292.339 C 188 292.603, 191.481 294.729, 195.735 297.064 C 204.215 301.719, 213.560 310.348, 216.822 316.537 C 217.971 318.716, 218.931 320.015, 218.956 319.421 C 219.043 317.286, 212.691 308.885, 207.478 304.240 C 202.821 300.092, 188 291.036, 188 292.339 M 258 297.035 C 253.875 299.221, 248.025 303.296, 245 306.092 L 239.500 311.176 245.300 306.424 C 248.489 303.811, 254.789 299.734, 259.300 297.365 C 263.810 294.997, 267.050 293.059, 266.500 293.060 C 265.950 293.061, 262.125 294.850, 258 297.035 M 111.500 296.871 C 113.150 298.692, 115.850 301.114, 117.500 302.253 C 121.045 304.700, 120.244 303.835, 113.500 297.934 C 109.806 294.701, 109.284 294.424, 111.500 296.871 M 372.409 317.500 C 372.408 326.850, 372.558 330.810, 372.743 326.299 C 372.928 321.789, 372.929 314.139, 372.745 309.299 C 372.562 304.460, 372.410 308.150, 372.409 317.500 M 124 306.449 C 124 306.724, 125.350 307.647, 127 308.500 C 128.650 309.353, 130 309.826, 130 309.551 C 130 309.276, 128.650 308.353, 127 307.500 C 125.350 306.647, 124 306.174, 124 306.449 M 314.250 307.716 C 315.762 307.945, 318.238 307.945, 319.750 307.716 C 321.262 307.487, 320.025 307.300, 317 307.300 C 313.975 307.300, 312.738 307.487, 314.250 307.716 M 297.500 310.464 C 293.638 312.232, 295.434 312.258, 300 310.500 C 301.925 309.759, 302.825 309.138, 302 309.121 C 301.175 309.104, 299.150 309.708, 297.500 310.464 M 322.320 316 C 322.320 319.575, 322.502 321.038, 322.723 319.250 C 322.945 317.462, 322.945 314.538, 322.723 312.750 C 322.502 310.962, 322.320 312.425, 322.320 316 M 137 313.500 C 139.475 314.825, 141.950 315.910, 142.500 315.910 C 143.050 315.910, 141.475 314.825, 139 313.500 C 136.525 312.175, 134.050 311.090, 133.500 311.090 C 132.950 311.090, 134.525 312.175, 137 313.500 M 287.808 315.492 C 282.896 319.097, 277.972 325.392, 278.039 327.982 C 278.061 328.817, 278.698 328.150, 279.455 326.500 C 281.329 322.419, 284.652 318.791, 289.900 315.097 C 292.320 313.394, 293.895 312.011, 293.400 312.025 C 292.905 312.038, 290.389 313.599, 287.808 315.492 M 146 317.500 C 147.375 318.286, 148.950 318.929, 149.500 318.929 C 150.050 318.929, 149.375 318.286, 148 317.500 C 146.625 316.714, 145.050 316.071, 144.500 316.071 C 143.950 316.071, 144.625 316.714, 146 317.500 M 156 321.459 C 156 321.734, 157.800 322.878, 160 324 C 162.200 325.122, 164 325.816, 164 325.541 C 164 325.266, 162.200 324.122, 160 323 C 157.800 321.878, 156 321.184, 156 321.459 M 167.086 328.618 C 168.414 330.333, 169.701 331.557, 169.947 331.338 C 170.193 331.119, 169.106 329.716, 167.533 328.220 L 164.672 325.500 167.086 328.618 M 221.252 333.500 C 221.263 335.700, 221.468 336.482, 221.707 335.238 C 221.946 333.994, 221.937 332.194, 221.687 331.238 C 221.437 330.282, 221.241 331.300, 221.252 333.500 M 277.118 332.782 C 276.801 341.629, 288.063 354.412, 294.671 352.705 C 295.958 352.372, 295.729 352.198, 293.898 352.116 C 287.542 351.833, 279.463 342.816, 278.062 334.440 C 277.395 330.455, 277.212 330.135, 277.118 332.782 M 231.286 335.500 C 231.294 338.250, 231.488 339.256, 231.718 337.736 C 231.947 336.216, 231.941 333.966, 231.704 332.736 C 231.467 331.506, 231.279 332.750, 231.286 335.500 M 170.232 336 C 170.232 337.925, 170.438 338.712, 170.689 337.750 C 170.941 336.788, 170.941 335.212, 170.689 334.250 C 170.438 333.288, 170.232 334.075, 170.232 336 M 316.797 338.991 C 315.314 341.648, 312.390 345.075, 310.300 346.606 C 308.210 348.137, 306.050 349.835, 305.500 350.378 C 303.699 352.158, 310.440 347.790, 312.845 345.618 C 315.306 343.396, 320.513 335.179, 319.869 334.535 C 319.663 334.329, 318.280 336.334, 316.797 338.991 M 381.232 337 C 381.232 338.925, 381.438 339.712, 381.689 338.750 C 381.941 337.788, 381.941 336.212, 381.689 335.250 C 381.438 334.288, 381.232 335.075, 381.232 337 M 101.557 338.776 C 101.251 339.082, 101 346.919, 101 356.191 L 101 373.050 103.544 374.017 C 104.943 374.549, 107.306 375.207, 108.794 375.480 C 110.282 375.753, 109.362 375.228, 106.750 374.313 L 102 372.649 102 355.878 L 102 339.108 107.703 341.070 C 110.839 342.149, 113.795 342.902, 114.273 342.742 C 114.750 342.583, 112.209 341.500, 108.627 340.336 C 105.046 339.171, 101.864 338.469, 101.557 338.776 M 168.657 341.451 C 168.333 342.297, 166.590 343.889, 164.784 344.991 C 162.978 346.092, 162.055 346.994, 162.734 346.996 C 164.394 347.001, 170.664 341.330, 169.873 340.540 C 169.529 340.195, 168.982 340.606, 168.657 341.451 M 371.343 347.500 C 371.346 351.900, 371.522 353.576, 371.733 351.224 C 371.945 348.872, 371.942 345.272, 371.727 343.224 C 371.512 341.176, 371.339 343.100, 371.343 347.500 M 431.998 347.250 C 431.999 347.663, 437.850 348, 445 348 L 458 348 458 362.427 C 458 375.325, 457.815 376.902, 456.250 377.311 C 454.933 377.655, 455.057 377.797, 456.750 377.884 C 458.991 378, 459 377.940, 459 362.554 L 459 347.108 445.498 346.804 C 438.072 346.637, 431.997 346.837, 431.998 347.250 M 132.250 347.689 C 133.213 347.941, 134.787 347.941, 135.750 347.689 C 136.713 347.438, 135.925 347.232, 134 347.232 C 132.075 347.232, 131.287 347.438, 132.250 347.689 M 142.784 348.738 C 145.689 348.941, 150.189 348.939, 152.784 348.734 C 155.378 348.528, 153 348.363, 147.500 348.365 C 142 348.368, 139.878 348.536, 142.784 348.738 M 215.695 354.513 C 214.781 356.431, 214.239 358, 214.490 358 C 215.175 358, 218.210 351.877, 217.753 351.420 C 217.536 351.203, 216.610 352.594, 215.695 354.513 M 299.500 352 C 296.732 352.704, 296.694 352.771, 299 352.866 C 300.375 352.923, 302.175 352.533, 303 352 C 304.702 350.900, 303.822 350.900, 299.500 352 M 237.532 359 C 240.790 364.916, 253.059 376, 256.352 376 C 256.974 376, 254.695 374.178, 251.287 371.952 C 247.879 369.725, 243.641 366.012, 241.868 363.702 C 237.980 358.634, 236.370 356.888, 237.532 359 M 208.499 364.404 C 205.748 367.304, 201.023 371.094, 197.999 372.828 C 194.974 374.562, 192.950 375.984, 193.500 375.987 C 196.358 376.003, 208.655 366.697, 212.019 361.973 C 214.960 357.843, 214.275 358.316, 208.499 364.404 M 370.349 369 C 370.349 373.675, 370.522 375.587, 370.732 373.250 C 370.943 370.913, 370.943 367.087, 370.732 364.750 C 370.522 362.413, 370.349 364.325, 370.349 369 M 322.232 365 C 322.232 366.925, 322.438 367.712, 322.689 366.750 C 322.941 365.788, 322.941 364.212, 322.689 363.250 C 322.438 362.288, 322.232 363.075, 322.232 365 M 314.001 367.148 C 311.527 369.384, 307.771 372.097, 305.654 373.176 C 303.538 374.256, 302.044 375.378, 302.335 375.668 C 303.089 376.423, 312.950 369.710, 316.437 366.067 C 320.535 361.788, 319.351 362.313, 314.001 367.148 M 388.833 365.500 C 390.494 368.839, 399.077 376, 401.418 376 C 401.954 376, 400.359 374.711, 397.874 373.135 C 395.389 371.559, 392.115 368.747, 390.597 366.885 C 389.079 365.023, 388.286 364.400, 388.833 365.500 M 298.863 376.470 C 298.604 376.729, 295.942 377.638, 292.946 378.491 C 289.217 379.552, 288.605 379.909, 291.006 379.623 C 294.541 379.202, 302.429 376.233, 300.417 376.082 C 299.821 376.037, 299.122 376.212, 298.863 376.470 M 405.860 377.533 C 407.709 378.393, 411.984 379.246, 415.360 379.429 C 418.737 379.612, 420.150 379.578, 418.500 379.354 C 414.782 378.847, 407.169 377.322, 404.498 376.549 C 403.399 376.231, 404.012 376.674, 405.860 377.533 M 117.500 378 C 118.600 378.473, 120.400 378.846, 121.500 378.830 C 123.108 378.806, 123.010 378.644, 121 378 C 117.581 376.905, 114.952 376.905, 117.500 378 M 182 379.155 C 176.663 380.696, 176.271 380.936, 179.809 380.495 C 182.179 380.199, 185.554 379.329, 187.309 378.560 C 191.576 376.692, 189.867 376.884, 182 379.155 M 447.762 378.707 C 449.006 378.946, 450.806 378.937, 451.762 378.687 C 452.718 378.437, 451.700 378.241, 449.500 378.252 C 447.300 378.263, 446.518 378.468, 447.762 378.707 M 435.750 379.723 C 437.538 379.945, 440.462 379.945, 442.250 379.723 C 444.038 379.502, 442.575 379.320, 439 379.320 C 435.425 379.320, 433.962 379.502, 435.750 379.723 M 56.797 380.745 C 61.361 380.930, 68.561 380.929, 72.797 380.742 C 77.034 380.555, 73.300 380.404, 64.500 380.405 C 55.700 380.406, 52.234 380.559, 56.797 380.745 M 130.250 380.689 C 131.213 380.941, 132.787 380.941, 133.750 380.689 C 134.713 380.438, 133.925 380.232, 132 380.232 C 130.075 380.232, 129.287 380.438, 130.250 380.689 M 275.776 380.733 C 278.128 380.945, 281.728 380.942, 283.776 380.727 C 285.824 380.512, 283.900 380.339, 279.500 380.343 C 275.100 380.346, 273.424 380.522, 275.776 380.733 M 139.768 381.725 C 141.565 381.947, 144.265 381.943, 145.768 381.715 C 147.271 381.486, 145.800 381.304, 142.500 381.310 C 139.200 381.315, 137.971 381.502, 139.768 381.725 M 168.264 381.718 C 169.784 381.947, 172.034 381.941, 173.264 381.704 C 174.494 381.467, 173.250 381.279, 170.500 381.286 C 167.750 381.294, 166.744 381.488, 168.264 381.718" stroke="none" fill="#fac808" fill-rule="evenodd"/><path d="M 231.834 12.567 C 202.774 17.825, 176.618 37.875, 162.783 65.500 C 159.779 71.497, 155.591 84.230, 153.902 92.500 C 152.327 100.215, 152.314 119.636, 153.878 128 C 158.908 154.890, 174.596 178.741, 197.091 193.699 C 204.948 198.924, 205.994 198.848, 212.241 192.601 C 218.129 186.713, 221.832 178.711, 223.026 169.295 C 224.566 157.149, 223.454 152.941, 215.418 140.500 C 206.007 125.929, 202.929 117.654, 201.041 101.842 C 200.075 93.749, 200.150 91.205, 201.543 84.909 C 207.780 56.718, 229.803 40, 260.702 40 C 283.971 40, 303.178 47.678, 312.006 60.509 C 318.580 70.064, 321.288 84.434, 319.033 97.802 L 317.811 105.049 324.443 115.211 C 328.091 120.799, 330.942 126.076, 330.779 126.936 C 330.568 128.051, 328.908 128.643, 324.991 129 L 319.500 129.500 319.818 146.029 C 320.114 161.483, 320.001 162.729, 318.069 165.185 C 314.953 169.146, 308.076 171.020, 294.500 171.607 C 278.451 172.301, 278.156 172.385, 276.309 176.786 C 274.760 180.474, 274.888 191.193, 276.609 201.957 L 277.239 205.893 283.765 203.436 C 315.437 191.515, 339.607 162.045, 345.535 128.119 C 351.357 94.805, 340.324 60.761, 316.316 37.955 C 293.181 15.979, 263.038 6.920, 231.834 12.567 M 251 47.111 C 251 47.840, 249.794 47.996, 247.500 47.566 C 244.386 46.982, 244 47.145, 244 49.048 C 244 50.332, 243.216 51.392, 242.039 51.700 C 240.365 52.138, 240.139 52.892, 240.492 56.856 C 240.719 59.410, 240.927 61.806, 240.953 62.180 C 240.979 62.555, 242.012 63.015, 243.250 63.204 C 244.488 63.393, 245.383 64.112, 245.241 64.802 C 244.864 66.623, 247.774 67.433, 249.513 65.989 C 250.677 65.023, 251.316 65.018, 252.456 65.964 C 254.303 67.497, 256 66.483, 256 63.847 C 256 62.701, 256.816 61.599, 257.869 61.324 C 260.479 60.641, 260.256 51.676, 257.616 51.166 C 256.665 50.982, 255.473 49.744, 254.968 48.416 C 254.052 46.006, 251 45.003, 251 47.111 M 246.655 52.829 C 244.719 54.968, 244.484 59.084, 246.200 60.800 C 246.860 61.460, 248.570 62, 250 62 C 253.341 62, 255 60.299, 255 56.871 C 255 51.679, 249.922 49.219, 246.655 52.829 M 294.951 57.559 C 293.504 59.302, 291.313 59.439, 290.773 57.820 C 290.141 55.924, 287 57.733, 287 59.993 C 287 61.266, 286.048 62.411, 284.500 63 C 282.066 63.925, 280.844 68, 283 68 C 284.276 68, 284.312 71.689, 283.044 72.473 C 281.337 73.528, 283.099 75.875, 285.835 76.192 C 287.731 76.411, 288.500 77.077, 288.500 78.500 C 288.500 79.813, 289.273 80.610, 290.750 80.820 C 291.988 80.995, 293 80.658, 293 80.070 C 293 78.742, 296.665 78.649, 297.473 79.956 C 298.528 81.663, 300.875 79.901, 301.192 77.165 C 301.410 75.281, 302.160 74.406, 303.750 74.180 C 305.991 73.862, 307.129 70, 304.982 70 C 304.409 70, 304.081 68.151, 304.232 65.774 C 304.463 62.133, 304.224 61.545, 302.500 61.524 C 301.400 61.511, 300.060 60.496, 299.521 59.269 C 298.265 56.406, 296.466 55.733, 294.951 57.559 M 290.223 63.557 C 287.421 65.519, 287.201 70.967, 289.829 73.345 C 294.029 77.146, 300 74.124, 300 68.197 C 300 65.725, 299.368 64.725, 297.050 63.526 C 293.385 61.631, 292.970 61.633, 290.223 63.557 M 261.250 63.662 C 260.563 63.940, 260 64.977, 260 65.968 C 260 66.959, 258.880 68.504, 257.511 69.401 C 255.494 70.722, 254.655 70.802, 253.081 69.819 C 251.426 68.785, 250.846 68.967, 249.150 71.053 C 247.389 73.219, 247.329 73.688, 248.629 75.132 C 250.703 77.438, 249.379 81.906, 246.272 83.087 C 244.598 83.723, 243.991 84.535, 244.398 85.596 C 244.729 86.458, 245 87.802, 245 88.582 C 245 89.402, 245.987 90, 247.339 90 C 250.435 90, 252.519 94.197, 250.794 96.958 C 249.791 98.564, 249.988 99.171, 252.053 100.850 C 254.219 102.611, 254.688 102.671, 256.132 101.371 C 258.464 99.274, 262.859 100.588, 263.617 103.611 C 264.243 106.106, 265.016 106.370, 268.750 105.370 C 270.228 104.974, 271 104.004, 271 102.544 C 271 99.935, 274.921 97.704, 277.092 99.078 C 279.228 100.430, 279.810 100.220, 281.631 97.440 C 283.151 95.120, 283.162 94.733, 281.748 93.320 C 279.653 91.224, 281.330 86, 284.098 86 C 285.605 86, 286 85.273, 286 82.500 C 286 79.425, 285.694 79, 283.479 79 C 280.259 79, 278.011 74.813, 279.742 72.041 C 280.668 70.559, 280.433 69.816, 278.447 67.950 C 276.156 65.798, 275.917 65.765, 274.150 67.364 C 271.805 69.487, 267.540 68.172, 266.730 65.077 C 266.210 63.089, 264.052 62.532, 261.250 63.662 M 169.359 75.469 C 167.175 76.403, 165.857 77.903, 165.036 80.390 C 163.628 84.656, 164.352 87.567, 167.714 91.161 C 170.136 93.750, 170.150 93.849, 168.239 94.872 C 163.560 97.376, 163.037 105.238, 167.248 109.750 C 171.743 114.566, 178.991 112.095, 189.414 102.193 C 194.193 97.653, 195 96.363, 195 93.260 C 195 90.222, 194.197 88.858, 190.058 84.868 C 180.697 75.846, 174.772 73.156, 169.359 75.469 M 257.923 76.923 C 255.530 79.316, 255 80.690, 255 84.500 C 255 88.310, 255.530 89.684, 257.923 92.077 C 260.283 94.436, 261.709 95, 265.319 95 C 269.188 95, 270.212 94.522, 272.896 91.465 C 275.078 88.981, 276 86.911, 276 84.500 C 276 82.089, 275.078 80.019, 272.896 77.535 C 270.212 74.478, 269.188 74, 265.319 74 C 261.709 74, 260.283 74.564, 257.923 76.923 M 213.730 92.923 C 213.413 94.138, 212.175 94.966, 210.364 95.173 C 207.816 95.464, 207.533 95.844, 207.797 98.625 C 207.997 100.726, 207.587 101.944, 206.547 102.344 C 204.355 103.185, 204.630 105.731, 207.052 107.028 C 208.359 107.727, 208.995 108.920, 208.802 110.313 C 208.543 112.191, 208.985 112.505, 211.927 112.532 C 213.812 112.550, 215.537 113.112, 215.761 113.782 C 216.344 115.531, 220 115.288, 220 113.500 C 220 111.991, 221.019 111.619, 224.250 111.948 C 226.032 112.129, 226.364 111.256, 226.039 107.246 C 225.937 105.988, 226.550 104.726, 227.428 104.389 C 229.503 103.593, 229.412 102.464, 227.095 100.289 C 226.047 99.305, 225.035 97.375, 224.845 96 C 224.550 93.861, 224.048 93.543, 221.375 93.797 C 219.274 93.997, 218.056 93.587, 217.656 92.547 C 216.824 90.379, 214.333 90.617, 213.730 92.923 M 213.223 98.557 C 210.583 100.405, 210.239 105.096, 212.571 107.429 C 214.904 109.761, 219.595 109.417, 221.443 106.777 C 223.538 103.786, 223.403 101.403, 221 99 C 218.597 96.597, 216.214 96.462, 213.223 98.557 M 236.487 102.250 C 235.815 103.782, 234.641 104.500, 232.806 104.500 C 229.302 104.500, 227.266 106.411, 228.801 108.260 C 230.214 109.962, 229.217 114, 227.383 114 C 226.574 114, 226 115.038, 226 116.500 C 226 118.029, 226.569 119, 227.465 119 C 229.428 119, 231.027 122.183, 230.354 124.753 C 229.751 127.058, 233.342 129.874, 234.498 128.003 C 235.600 126.220, 239.162 126.902, 239.710 129 C 240.470 131.906, 244.760 131.710, 245.180 128.750 C 245.436 126.953, 246.143 126.500, 248.696 126.500 C 252.609 126.500, 254.554 124.797, 253.475 122.317 C 252.426 119.905, 252.869 117.683, 254.595 116.700 C 256.811 115.439, 256.290 111.602, 253.750 110.480 C 252.117 109.758, 251.573 108.771, 251.767 106.879 C 252.106 103.555, 249.627 101.235, 247.564 102.947 C 246.003 104.242, 242 102.816, 242 100.965 C 242 98.965, 237.464 100.023, 236.487 102.250 M 235.923 109.923 C 234.179 111.668, 233 113.903, 233 115.469 C 233 119.283, 237.137 123, 241.382 123 C 249.413 123, 251.706 111.465, 244.343 108.110 C 240.622 106.415, 239.104 106.742, 235.923 109.923 M 41.685 178.649 C 41.308 179.025, 41 224.483, 41 279.667 L 41 380 65.005 380 L 89.010 380 88.755 279.250 L 88.500 178.500 65.435 178.232 C 52.749 178.085, 42.061 178.272, 41.685 178.649 M 381.414 181.365 C 381.126 182.115, 381.059 218.678, 381.266 262.615 C 381.676 349.739, 381.672 349.677, 387.557 361.707 C 394.452 375.798, 411.106 381.360, 439.452 379.038 C 446.629 378.450, 453.738 377.715, 455.250 377.405 L 458 376.841 458 362.421 L 458 348 445.117 348 L 432.235 348 431.520 307.750 C 431.127 285.613, 430.962 265.700, 431.153 263.500 L 431.500 259.500 444.500 259.337 L 457.500 259.173 457.773 241.087 L 458.045 223 444.523 223 L 431 223 431 201.500 L 431 180 406.469 180 C 386.668 180, 381.836 180.263, 381.414 181.365 M 150 222.720 C 131.537 224.827, 115.723 233.747, 108.176 246.309 C 103.424 254.219, 101.716 261.683, 102.185 272.500 C 102.668 283.665, 105.091 289.195, 112.945 297.068 C 119.655 303.794, 127.861 308.623, 146.864 317.029 C 167.881 326.326, 171.902 329.858, 170.620 337.893 C 169.442 345.284, 161.650 349.026, 147.568 348.965 C 137.433 348.921, 127.611 347.140, 113.250 342.741 L 102 339.295 102 356.002 L 102 372.709 109.250 374.835 C 121.754 378.504, 129.291 379.936, 142.094 381.077 C 186.218 385.010, 212.854 372.015, 219.613 343.259 C 222.884 329.345, 219.425 317.251, 209.284 307.143 C 202.595 300.474, 193.264 295.024, 173.201 286.068 C 164.431 282.153, 157.277 278.243, 154.701 275.956 C 150.891 272.575, 150.500 271.791, 150.500 267.528 C 150.500 263.625, 150.973 262.420, 153.285 260.431 C 158.145 256.251, 166.001 254.641, 177.811 255.404 C 187.806 256.051, 207.630 259.083, 211.250 260.520 C 212.876 261.165, 213 259.997, 213 244.107 C 213 234.698, 212.609 227, 212.131 227 C 211.653 227, 207.352 226.318, 202.573 225.485 C 186.403 222.665, 161.809 221.371, 150 222.720 M 269.338 223.005 C 266.499 223.420, 260.761 224.520, 256.588 225.448 L 249 227.136 249 243.675 C 249 259.044, 249.124 260.161, 250.750 259.467 C 265.646 253.107, 277.767 250.660, 291.835 251.174 C 300.655 251.497, 303.451 252.007, 308 254.126 C 318.113 258.835, 323 266.481, 323 277.593 L 323 282.829 315.250 283.477 C 302.616 284.534, 285.095 287.687, 276 290.540 C 256.190 296.756, 240.825 307.729, 235.241 319.649 C 232.826 324.804, 232.500 326.689, 232.500 335.500 C 232.500 347.542, 234.281 353.445, 240.436 361.806 C 248.403 372.629, 260.995 378.893, 276.500 379.749 C 292.233 380.616, 304.969 375.921, 315.679 365.304 L 321.930 359.107 322.466 362.304 C 323.438 368.102, 324.985 378.486, 324.992 379.269 C 324.997 379.692, 335.012 379.917, 347.250 379.769 L 369.500 379.500 370.135 369 C 370.484 363.225, 371.100 345.675, 371.505 330 C 372.119 306.186, 371.969 299.468, 370.595 289.141 C 366.965 261.852, 357.214 245.172, 338.111 233.567 C 331.126 229.324, 316.721 224.384, 307.407 223.038 C 299.526 221.899, 277.030 221.879, 269.338 223.005 M 307.148 308.028 C 287.407 310.899, 273.606 325.187, 277.927 338.280 C 279.326 342.518, 285.233 349.552, 289.051 351.526 C 298.773 356.554, 313.510 349.065, 319.232 336.189 C 321.580 330.904, 323.585 315.851, 322.619 310.750 C 321.914 307.025, 321.879 307.001, 317.205 307.125 C 314.617 307.193, 310.091 307.600, 307.148 308.028" stroke="none" fill="#ba0605" fill-rule="evenodd"/></svg>